<svg width="94" height="38" viewBox="0 0 94 38" fill="none" xmlns="http://www.w3.org/2000/svg">
<path fill-rule="evenodd" clip-rule="evenodd" d="M34.4062 35.3653C34.8728 35.8396 35.4644 36.0758 36.1805 36.0758C36.8972 36.0758 37.4888 35.8396 37.9554 35.3653C38.421 34.8919 38.6546 34.2792 38.6546 33.5272C38.6546 32.7752 38.421 32.1625 37.9554 31.6887C37.4888 31.2153 36.8972 30.9786 36.1805 30.9786C35.4644 30.9786 34.8728 31.2153 34.4062 31.6887C33.94 32.1625 33.707 32.7752 33.707 33.5272C33.707 34.2792 33.94 34.8919 34.4062 35.3653ZM39.126 36.3762C38.3401 37.1527 37.3589 37.5408 36.1805 37.5408C35.0031 37.5408 34.021 37.1527 33.236 36.3762C32.4506 35.6 32.0586 34.6504 32.0586 33.5272C32.0586 32.4045 32.4506 31.4544 33.236 30.6783C34.021 29.9012 35.0031 29.5137 36.1805 29.5137C37.3589 29.5137 38.3401 29.9012 39.126 30.6783C39.911 31.4544 40.3035 32.4045 40.3035 33.5272C40.3035 34.6504 39.911 35.6 39.126 36.3762Z" fill="#FFFFFE"/>
<path fill-rule="evenodd" clip-rule="evenodd" d="M47.269 31.1686C46.454 31.1686 45.8406 31.4322 45.4283 31.9596C45.0164 32.4874 44.81 33.1951 44.81 34.0835V37.4237H43.1606V29.6308H44.81V31.198C45.075 30.7096 45.4355 30.3095 45.8925 29.9972C46.3489 29.6843 46.832 29.5233 47.3427 29.5137L47.3572 31.1686C47.3277 31.1686 47.2981 31.1686 47.269 31.1686Z" fill="#FFFFFE"/>
<path fill-rule="evenodd" clip-rule="evenodd" d="M52.0978 33.5401C52.0978 34.2824 52.3241 34.8903 52.7757 35.3637C53.2273 35.838 53.7768 36.0742 54.4246 36.0742C55.0724 36.0742 55.6369 35.8404 56.118 35.3714C56.5992 34.9023 56.8395 34.295 56.8395 33.5478C56.8395 32.8006 56.6035 32.1807 56.1326 31.6871C55.6616 31.1939 55.0971 30.9471 54.4396 30.9471C53.7816 30.9471 53.2273 31.1939 52.7757 31.6871C52.3241 32.1807 52.0978 32.7982 52.0978 33.5401ZM54.6751 29.512C55.7256 29.512 56.6234 29.8736 57.3691 30.5962C58.1153 31.3188 58.4889 32.2805 58.4889 33.4817C58.4889 34.6825 58.1177 35.6596 57.3769 36.4112C56.636 37.1636 55.7721 37.5392 54.7856 37.5392C53.7986 37.5392 52.9128 37.1097 52.1274 36.2502V37.422H50.479V26.5527H52.1274V30.9915C52.7757 30.0052 53.6246 29.512 54.6751 29.512Z" fill="#FFFFFE"/>
<path fill-rule="evenodd" clip-rule="evenodd" d="M61.8458 37.4232H63.4947V29.6304H61.8458V37.4232ZM61.949 28.0772C61.7426 27.8723 61.6394 27.6284 61.6394 27.345C61.6394 27.062 61.7426 26.8176 61.949 26.6127C62.155 26.4074 62.4001 26.3047 62.685 26.3047C62.9695 26.3047 63.2151 26.4074 63.4215 26.6127C63.627 26.8176 63.7302 27.062 63.7302 27.345C63.7302 27.6284 63.627 27.8723 63.4215 28.0772C63.2151 28.2825 62.9695 28.3852 62.685 28.3852C62.4001 28.3852 62.155 28.2825 61.949 28.0772Z" fill="#FFFFFE"/>
<path fill-rule="evenodd" clip-rule="evenodd" d="M69.3842 30.9479V34.9032C69.3842 35.2748 69.482 35.5698 69.6788 35.7897C69.875 36.009 70.1497 36.1194 70.503 36.1194C70.8567 36.1194 71.1954 35.9483 71.5195 35.6065L72.1964 36.7639C71.6174 37.2816 70.9768 37.54 70.2748 37.54C69.5731 37.54 68.9747 37.2985 68.4786 36.815C67.9829 36.3315 67.7348 35.6797 67.7348 34.8593V30.9479H66.7488V29.63H67.7348V27.1836H69.3842V29.63H71.4454V30.9479H69.3842Z" fill="#FFFFFE"/>
<path fill-rule="evenodd" clip-rule="evenodd" d="M74.9791 37.4232H76.6285V29.6304H74.9791V37.4232ZM75.0823 28.0772C74.8759 27.8723 74.7732 27.6284 74.7732 27.345C74.7732 27.062 74.8759 26.8176 75.0823 26.6127C75.2887 26.4074 75.5339 26.3047 75.8188 26.3047C76.1032 26.3047 76.3484 26.4074 76.5548 26.6127C76.7612 26.8176 76.8644 27.062 76.8644 27.345C76.8644 27.6284 76.7612 27.8723 76.5548 28.0772C76.3484 28.2825 76.1032 28.3852 75.8188 28.3852C75.5339 28.3852 75.2887 28.2825 75.0823 28.0772Z" fill="#FFFFFE"/>
<path fill-rule="evenodd" clip-rule="evenodd" d="M80.4858 37.422H82.1352V26.5527H80.4858V37.422Z" fill="#FFFFFE"/>
<path fill-rule="evenodd" clip-rule="evenodd" d="M87.1411 32.9555H91.6322C91.6322 32.3019 91.4263 31.7986 91.0135 31.4467C90.6016 31.0958 90.0938 30.9198 89.4896 30.9198C88.8859 30.9198 88.3437 31.103 87.863 31.4689C87.3819 31.8352 87.1411 32.3308 87.1411 32.9555ZM93.2811 34.245H87.1411C87.1808 34.8114 87.4405 35.2679 87.9217 35.6145C88.4023 35.9616 88.9523 36.1346 89.5705 36.1346C90.5522 36.1346 91.2984 35.8266 91.8091 35.212L92.751 36.2373C91.907 37.1065 90.8076 37.5408 89.4528 37.5408C88.3534 37.5408 87.4182 37.1773 86.6478 36.4494C85.8774 35.7225 85.4922 34.7454 85.4922 33.5195C85.4922 32.2941 85.8847 31.3204 86.6701 30.5978C87.455 29.8752 88.3805 29.5137 89.4455 29.5137C90.5105 29.5137 91.4161 29.8338 92.1623 30.473C92.908 31.1126 93.2811 31.9938 93.2811 33.117V34.245Z" fill="#FFFFFE"/>
<path fill-rule="evenodd" clip-rule="evenodd" d="M69.0103 6.12955H75.1634V0.0214844H69.0103V6.12955Z" fill="#E3CBB1"/>
<path fill-rule="evenodd" clip-rule="evenodd" d="M0.569336 6.14257H17.954C16.686 2.57877 13.2782 0.0214844 9.26143 0.0214844C5.24511 0.0214844 1.83737 2.57877 0.569336 6.14257Z" fill="#E3CBB1"/>
<path fill-rule="evenodd" clip-rule="evenodd" d="M75.1633 18.3874H81.3165V12.2793H75.1633V18.3874Z" fill="#E3CBB1"/>
<path fill-rule="evenodd" clip-rule="evenodd" d="M81.3164 12.2526H87.4695V6.14453H81.3164V12.2526Z" fill="#E3CBB1"/>
<path fill-rule="evenodd" clip-rule="evenodd" d="M17.9555 12.2656C16.687 15.8294 13.2788 18.3872 9.26196 18.3872H62.857V12.2656H17.9555Z" fill="#E3CBB1"/>
<path fill-rule="evenodd" clip-rule="evenodd" d="M62.8572 12.2585H69.0103V6.15039H62.8572V12.2585Z" fill="#E3CBB1"/>
<path fill-rule="evenodd" clip-rule="evenodd" d="M0.569336 12.2656C1.83737 15.8294 5.24511 18.3867 9.26143 18.3867C13.2782 18.3867 16.686 15.8294 17.954 12.2656H0.569336Z" fill="#FFFFFE"/>
<path fill-rule="evenodd" clip-rule="evenodd" d="M17.9556 6.14453C18.2967 7.10285 18.4919 8.1301 18.4919 9.20507C18.4919 10.28 18.2967 11.3073 17.9556 12.2661H62.857V6.14453H17.9556Z" fill="#FFFFFE"/>
<path fill-rule="evenodd" clip-rule="evenodd" d="M87.4695 18.3875H93.6231V12.252H87.4695V18.3875Z" fill="#FFFFFE"/>
<path fill-rule="evenodd" clip-rule="evenodd" d="M75.1633 12.2936H81.3165V6.14453H75.1633V12.2936Z" fill="#FFFFFE"/>
<path fill-rule="evenodd" clip-rule="evenodd" d="M62.8572 6.17053H69.0103V0.0214844H62.8572V6.17053Z" fill="#FFFFFE"/>
<path fill-rule="evenodd" clip-rule="evenodd" d="M69.0103 18.3873H75.1634V12.2383H69.0103V18.3873Z" fill="#FFFFFE"/>
<path fill-rule="evenodd" clip-rule="evenodd" d="M0.032959 9.20507C0.032959 10.28 0.228226 11.3073 0.56934 12.2656H17.954C18.2951 11.3073 18.4904 10.28 18.4904 9.20507C18.4904 8.1301 18.2951 7.10333 17.954 6.14453H0.56934C0.228226 7.10333 0.032959 8.1301 0.032959 9.20507Z" fill="#283278"/>
<path fill-rule="evenodd" clip-rule="evenodd" d="M75.1633 6.14305H81.3165V0.0214844H75.1633V6.14305Z" fill="#283278"/>
<path fill-rule="evenodd" clip-rule="evenodd" d="M9.26196 0.0214844C13.2788 0.0214844 16.687 2.57925 17.9555 6.14354H62.857V0.0214844H9.26196Z" fill="#283278"/>
<path fill-rule="evenodd" clip-rule="evenodd" d="M81.3164 18.3875H87.4695V12.252H81.3164V18.3875Z" fill="#283278"/>
<path fill-rule="evenodd" clip-rule="evenodd" d="M62.843 18.3873H69.0102V12.2383H62.843V18.3873Z" fill="#283278"/>
<path fill-rule="evenodd" clip-rule="evenodd" d="M69.0103 12.2584H75.1634V6.10938H69.0103V12.2584Z" fill="#283278"/>
</svg>
