<svg width="149" height="60" viewBox="0 0 149 60" fill="none" xmlns="http://www.w3.org/2000/svg">
<mask id="mask0" mask-type="alpha" maskUnits="userSpaceOnUse" x="50" y="42" width="65" height="18">
<path d="M50.7964 42.0713H114.518V59.9544H50.7964V42.0713Z" fill="white"/>
</mask>
<g mask="url(#mask0)">
<path fill-rule="evenodd" clip-rule="evenodd" d="M54.5233 56.5289C55.2641 57.285 56.2033 57.6627 57.3402 57.6627C58.4779 57.6627 59.4172 57.285 60.1579 56.5289C60.8979 55.7735 61.2679 54.7958 61.2679 53.595C61.2679 52.3958 60.8979 51.4174 60.1579 50.662C59.4172 49.9066 58.4779 49.5281 57.3402 49.5281C56.2033 49.5281 55.2641 49.9066 54.5233 50.662C53.7833 51.4174 53.4133 52.3958 53.4133 53.595C53.4133 54.7958 53.7833 55.7735 54.5233 56.5289ZM62.0164 58.142C60.7695 59.3812 59.211 60.0004 57.3402 60.0004C55.471 60.0004 53.9118 59.3812 52.6656 58.142C51.4187 56.9027 50.7964 55.3881 50.7964 53.595C50.7964 51.8035 51.4187 50.2881 52.6656 49.0489C53.9118 47.8097 55.471 47.1904 57.3402 47.1904C59.211 47.1904 60.7695 47.8097 62.0164 49.0489C63.2625 50.2881 63.8856 51.8035 63.8856 53.595C63.8856 55.3881 63.2625 56.9027 62.0164 58.142Z" fill="#020000"/>
<path fill-rule="evenodd" clip-rule="evenodd" d="M74.9442 49.832C73.6503 49.832 72.6765 50.2527 72.0219 51.0943C71.368 51.9358 71.0403 53.0658 71.0403 54.4835V59.8135H68.4219V47.3774H71.0403V49.8781C71.4611 49.0997 72.0342 48.4612 72.7588 47.962C73.4834 47.4635 74.2503 47.2066 75.0611 47.1904L75.0842 49.832C75.0373 49.832 74.9903 49.832 74.9442 49.832Z" fill="#020000"/>
<path fill-rule="evenodd" clip-rule="evenodd" d="M82.6103 53.6188C82.6103 54.8034 82.9696 55.7734 83.6857 56.5288C84.4026 57.2849 85.2757 57.6626 86.3042 57.6626C87.3326 57.6626 88.2288 57.2888 88.9926 56.5411C89.7557 55.7926 90.1373 54.8226 90.1373 53.6303C90.1373 52.4388 89.7634 51.4488 89.015 50.6618C88.268 49.8749 87.3711 49.4811 86.3273 49.4811C85.2834 49.4811 84.4026 49.8749 83.6857 50.6618C82.9696 51.4488 82.6103 52.4349 82.6103 53.6188ZM86.7011 47.1903C88.3688 47.1903 89.795 47.7672 90.9788 48.9203C92.1634 50.0734 92.7557 51.608 92.7557 53.5257C92.7557 55.4418 92.1673 57.0003 90.9911 58.2003C89.8142 59.4003 88.4426 60.0003 86.8773 60.0003C85.3103 60.0003 83.9042 59.3149 82.6572 57.9434V59.8134H80.0396V42.4688H82.6572V49.5518C83.6857 47.978 85.0334 47.1903 86.7011 47.1903Z" fill="#020000"/>
<path fill-rule="evenodd" clip-rule="evenodd" d="M98.085 59.8128H100.703V47.3774H98.085V59.8128ZM98.2489 44.8998C97.9212 44.5728 97.7573 44.1828 97.7573 43.7305C97.7573 43.279 97.9212 42.889 98.2489 42.5628C98.5766 42.2351 98.9658 42.0713 99.4181 42.0713C99.8696 42.0713 100.259 42.2351 100.587 42.5628C100.913 42.889 101.077 43.279 101.077 43.7305C101.077 44.1828 100.913 44.5728 100.587 44.8998C100.259 45.2274 99.8696 45.3905 99.4181 45.3905C98.9658 45.3905 98.5766 45.2274 98.2489 44.8998Z" fill="#020000"/>
<path fill-rule="evenodd" clip-rule="evenodd" d="M110.053 49.4813V55.7929C110.053 56.3852 110.209 56.8567 110.52 57.2075C110.833 57.5575 111.269 57.7329 111.829 57.7329C112.391 57.7329 112.928 57.4606 113.443 56.9152L114.518 58.7613C113.598 59.5883 112.582 60.0006 111.467 60.0006C110.353 60.0006 109.403 59.6152 108.616 58.8436C107.828 58.0721 107.435 57.0313 107.435 55.7229V49.4813H105.869V47.3775H107.435V43.4736H110.053V47.3775H113.326V49.4813H110.053Z" fill="#020000"/>
</g>
<path fill-rule="evenodd" clip-rule="evenodd" d="M118.935 59.8128H121.554V47.3774H118.935V59.8128ZM119.099 44.8997C118.771 44.5728 118.608 44.1828 118.608 43.7305C118.608 43.279 118.771 42.889 119.099 42.5628C119.426 42.2351 119.815 42.0713 120.268 42.0713C120.72 42.0713 121.109 42.2351 121.437 42.5628C121.764 42.889 121.928 43.279 121.928 43.7305C121.928 44.1828 121.764 44.5728 121.437 44.8997C121.109 45.2274 120.72 45.3905 120.268 45.3905C119.815 45.3905 119.426 45.2274 119.099 44.8997Z" fill="#020000"/>
<mask id="mask1" mask-type="alpha" maskUnits="userSpaceOnUse" x="127" y="42" width="21" height="18">
<path d="M127.678 42.4688H147.99V59.9541H127.678V42.4688Z" fill="white"/>
</mask>
<g mask="url(#mask1)">
<path fill-rule="evenodd" clip-rule="evenodd" d="M127.678 59.8134H130.295V42.4688H127.678V59.8134Z" fill="#020000"/>
<path fill-rule="evenodd" clip-rule="evenodd" d="M138.242 52.6835H145.373C145.373 51.6397 145.046 50.8374 144.39 50.2758C143.737 49.715 142.93 49.4343 141.972 49.4343C141.013 49.4343 140.152 49.7266 139.389 50.3112C138.625 50.8958 138.242 51.6866 138.242 52.6835ZM147.99 54.7412H138.242C138.305 55.645 138.718 56.3735 139.482 56.9266C140.246 57.4797 141.119 57.7566 142.1 57.7566C143.658 57.7566 144.842 57.265 145.653 56.2843L147.149 57.9204C145.809 59.3066 144.064 60.0004 141.913 60.0004C140.167 60.0004 138.683 59.4204 137.46 58.2589C136.237 57.0981 135.625 55.5397 135.625 53.5835C135.625 51.6281 136.249 50.0735 137.495 48.9204C138.742 47.7674 140.211 47.1904 141.901 47.1904C143.592 47.1904 145.03 47.7012 146.215 48.7212C147.399 49.7427 147.99 51.1489 147.99 52.9412V54.7412Z" fill="#020000"/>
</g>
<path fill-rule="evenodd" clip-rule="evenodd" d="M109.458 9.87778H119.228V0.130859H109.458V9.87778Z" fill="#E3CBB1"/>
<path fill-rule="evenodd" clip-rule="evenodd" d="M0.805176 9.89855H28.4044C26.3913 4.21163 20.9813 0.130859 14.6052 0.130859C8.22825 0.130859 2.81902 4.21163 0.805176 9.89855Z" fill="#E3CBB1"/>
<path fill-rule="evenodd" clip-rule="evenodd" d="M119.228 29.4374H128.996V19.6904H119.228V29.4374Z" fill="#E3CBB1"/>
<path fill-rule="evenodd" clip-rule="evenodd" d="M128.996 19.6463H138.765V9.89941H128.996V19.6463Z" fill="#E3CBB1"/>
<path fill-rule="evenodd" clip-rule="evenodd" d="M28.407 19.668C26.3924 25.3557 20.9824 29.4372 14.6055 29.4372H99.6901V19.668H28.407Z" fill="#E3CBB1"/>
<path fill-rule="evenodd" clip-rule="evenodd" d="M99.6899 19.6571H109.458V9.91016H99.6899V19.6571Z" fill="#E3CBB1"/>
<path fill-rule="evenodd" clip-rule="evenodd" d="M0.805176 19.6689C2.81902 25.3551 8.22825 29.4366 14.6052 29.4366C20.9813 29.4366 26.3913 25.3551 28.4044 19.6689H0.805176Z" fill="#020000"/>
<path fill-rule="evenodd" clip-rule="evenodd" d="M28.4067 9.89941C28.9483 11.4294 29.2583 13.0686 29.2583 14.784C29.2583 16.4994 28.9483 18.1386 28.4067 19.6679H99.6898V9.89941H28.4067Z" fill="#020000"/>
<path fill-rule="evenodd" clip-rule="evenodd" d="M138.765 29.4365H148.533V19.6465H138.765V29.4365Z" fill="#020000"/>
<path fill-rule="evenodd" clip-rule="evenodd" d="M119.228 19.7117H128.996V9.89941H119.228V19.7117Z" fill="#020000"/>
<path fill-rule="evenodd" clip-rule="evenodd" d="M99.6899 9.94317H109.458V0.130859H99.6899V9.94317Z" fill="#020000"/>
<mask id="mask2" mask-type="alpha" maskUnits="userSpaceOnUse" x="0" y="9" width="120" height="21">
<path d="M0 9.90039H119.228V29.4373H0V9.90039Z" fill="white"/>
</mask>
<g mask="url(#mask2)">
<path fill-rule="evenodd" clip-rule="evenodd" d="M109.458 29.4373H119.228V19.625H109.458V29.4373Z" fill="#020000"/>
<path fill-rule="evenodd" clip-rule="evenodd" d="M-0.0463867 14.7835C-0.0463867 16.4989 0.263613 18.1381 0.805152 19.6673H28.4044C28.9459 18.1381 29.2559 16.4989 29.2559 14.7835C29.2559 13.0689 28.9459 11.4296 28.4044 9.90039H0.805152C0.263613 11.4296 -0.0463867 13.0689 -0.0463867 14.7835Z" fill="#283278"/>
</g>
<path fill-rule="evenodd" clip-rule="evenodd" d="M119.228 9.89932H128.996V0.130859H119.228V9.89932Z" fill="#283278"/>
<path fill-rule="evenodd" clip-rule="evenodd" d="M14.6055 0.130859C20.9824 0.130859 26.3924 4.2124 28.407 9.89932H99.6901V0.130859H14.6055Z" fill="#283278"/>
<path fill-rule="evenodd" clip-rule="evenodd" d="M128.996 29.4365H138.765V19.6465H128.996V29.4365Z" fill="#283278"/>
<path fill-rule="evenodd" clip-rule="evenodd" d="M99.6685 29.4373H109.458V19.625H99.6685V29.4373Z" fill="#283278"/>
<path fill-rule="evenodd" clip-rule="evenodd" d="M109.458 19.657H119.228V9.84473H109.458V19.657Z" fill="#283278"/>
</svg>
