<svg width="30" height="26" viewBox="0 0 30 26" fill="currentColor" xmlns="http://www.w3.org/2000/svg">
<path d="M30 15.747C30 19.0379 28.9526 22.1617 26.9712 24.7812C26.5803 25.2983 25.8451 25.3985 25.3297 25.0087C24.8135 24.6183 24.7117 23.8833 25.1019 23.3672C26.773 21.1583 27.6562 18.5232 27.6562 15.747C27.6562 8.75195 21.9912 3.09766 15 3.09766C8.004 3.09766 2.34375 8.7563 2.34375 15.747C2.34375 18.5232 3.22701 21.1583 4.89784 23.3672C5.28831 23.8833 5.18646 24.6183 4.67033 25.0087C4.15398 25.3992 3.41927 25.2974 3.02856 24.7812C1.04736 22.1617 0 19.0379 0 15.747C0 7.45603 6.71356 0.753906 15 0.753906C23.291 0.753906 30 7.4606 30 15.747ZM22.4252 8.68947C22.8827 9.14701 22.8827 9.88904 22.4252 10.3466L18.6053 14.1664C18.9198 14.7461 19.0988 15.4099 19.0988 16.1144C19.0988 18.3746 17.26 20.2132 15 20.2132C12.7398 20.2132 10.9012 18.3746 10.9012 16.1144C10.9012 13.8544 12.7398 12.0156 15 12.0156C15.7047 12.0156 16.3683 12.1946 16.948 12.5091L20.7678 8.68924C21.2256 8.23171 21.9674 8.23171 22.4252 8.68947ZM16.7551 16.1146C16.7551 15.1469 15.9677 14.3596 15 14.3596C14.0323 14.3596 13.2449 15.1469 13.2449 16.1146C13.2449 17.0823 14.0323 17.8697 15 17.8697C15.9677 17.8697 16.7551 17.0823 16.7551 16.1146Z"/>
</svg>
