<svg width="31" height="30" viewBox="0 0 31 30" fill="currentColor" xmlns="http://www.w3.org/2000/svg">
<g clip-path="url(#clip0)">
<path d="M15.918 23.6426C16.727 23.6426 17.3828 22.9867 17.3828 22.1777C17.3828 21.3687 16.727 20.7129 15.918 20.7129C15.109 20.7129 14.4531 21.3687 14.4531 22.1777C14.4531 22.9867 15.109 23.6426 15.918 23.6426Z" />
<path d="M15.918 0C7.62789 0 0.917969 6.70881 0.917969 15C0.917969 23.2901 7.62678 30 15.918 30C24.208 30 30.918 23.2912 30.918 15C30.918 6.70992 24.2092 0 15.918 0ZM15.918 27.6562C8.92322 27.6562 3.26172 21.9957 3.26172 15C3.26172 8.00525 8.92229 2.34375 15.918 2.34375C22.9127 2.34375 28.5742 8.00432 28.5742 15C28.5742 21.9947 22.9137 27.6562 15.918 27.6562Z" />
<path d="M15.918 7.5293C13.3333 7.5293 11.2305 9.63211 11.2305 12.2168C11.2305 12.864 11.7551 13.3887 12.4023 13.3887C13.0496 13.3887 13.5742 12.864 13.5742 12.2168C13.5742 10.9245 14.6256 9.87305 15.918 9.87305C17.2103 9.87305 18.2617 10.9245 18.2617 12.2168C18.2617 13.5091 17.2103 14.5605 15.918 14.5605C15.2707 14.5605 14.7461 15.0852 14.7461 15.7324V18.6621C14.7461 19.3093 15.2707 19.834 15.918 19.834C16.5652 19.834 17.0898 19.3093 17.0898 18.6621V16.756C19.1093 16.2343 20.6055 14.397 20.6055 12.2168C20.6055 9.63211 18.5027 7.5293 15.918 7.5293Z" />
</g>
<defs>
<clipPath id="clip0">
<rect width="30" height="30" fill="white" transform="translate(0.917969)"/>
</clipPath>
</defs>
</svg>
