<svg width="30" height="30" viewBox="0 0 30 30" fill="currentColor" xmlns="http://www.w3.org/2000/svg">
<g clip-path="url(#clip0)">
<path d="M20.4993 3.64392C19.8667 3.36753 19.1298 3.65635 18.8534 4.28899C18.577 4.92164 18.8658 5.65853 19.4985 5.93492C23.5656 7.71175 26.2502 11.7344 26.2502 16.2496C26.2502 22.4627 21.2127 27.4998 15.0001 27.4998C8.78662 27.4998 3.74998 22.4631 3.74998 16.2496C3.74998 11.7354 6.4336 7.71274 10.4996 5.93474C11.1321 5.65818 11.4207 4.92117 11.144 4.28864C10.8675 3.65611 10.1305 3.36753 9.49796 3.64416C4.52981 5.81656 1.25 10.733 1.25 16.2496C1.25 23.8438 7.40597 29.9998 15.0001 29.9998C22.5935 29.9998 28.7503 23.8434 28.7503 16.2496C28.7503 10.7317 25.4691 5.81503 20.4993 3.64392Z" />
<path d="M15 13.7501C15.6903 13.7501 16.25 13.1905 16.25 12.5001V1.25005C16.25 0.559633 15.6903 0 15 0C14.3096 0 13.75 0.559633 13.75 1.24999V12.5001C13.75 13.1904 14.3096 13.7501 15 13.7501Z" />
</g>
<defs>
<clipPath id="clip0">
<rect width="30" height="30" fill="white"/>
</clipPath>
</defs>
</svg>
