<svg width="30" height="30" viewBox="0 0 30 30" fill="currentColor" xmlns="http://www.w3.org/2000/svg">
<g clip-path="url(#clip0)">
<path d="M27.6314 14.2425L19.3948 10.9478V8.90616H22.9104V9.78507C22.9104 10.2705 23.304 10.664 23.7893 10.664C24.2747 10.664 24.6683 10.2705 24.6683 9.78507V8.90616H25.5472C26.4713 8.90616 26.7666 7.65435 25.9402 7.24109L19.0431 3.7926L15.6318 0.267584C15.2867 -0.0890189 14.7141 -0.0893705 14.3686 0.267584L10.9573 3.7926L4.06022 7.24109C3.23364 7.65441 3.5293 8.90616 4.45327 8.90616H5.33218V9.78507C5.33218 10.2705 5.7257 10.664 6.21109 10.664C6.69648 10.664 7.09 10.2705 7.09 9.78507V8.90616H10.6056V10.9478L2.36902 14.2425C1.474 14.6005 1.73222 15.9374 2.69545 15.9374H3.57436V16.8163C3.57436 17.3017 3.96788 17.6953 4.45327 17.6953C4.93866 17.6953 5.33218 17.3017 5.33218 16.8163V15.9374H10.6056V18.5014L8.98217 28.2422H6.21115C5.72575 28.2422 5.33224 28.6357 5.33224 29.1211C5.33224 29.6065 5.72575 30 6.21115 30H23.7893C24.2747 30 24.6683 29.6065 24.6683 29.1211C24.6683 28.6357 24.2747 28.2422 23.7893 28.2422H21.0183L19.3948 18.5014V15.9374H24.6683V16.8163C24.6683 17.3017 25.0618 17.6953 25.5472 17.6953C26.0326 17.6953 26.4261 17.3017 26.4261 16.8163V15.9374H27.305C28.2689 15.9374 28.5257 14.6002 27.6314 14.2425ZM15.0002 22.2632L12.6156 18.6861L15.0002 16.3015L17.3849 18.6861L15.0002 22.2632ZM12.3635 6.63347L13.7573 8.02725L12.3635 9.42102V6.63347ZM17.637 9.42102L16.2432 8.02725L17.637 6.63347V9.42102ZM17.2729 11.5429L15.0002 13.8156L12.7276 11.5429L15.0002 9.2702L17.2729 11.5429ZM12.3635 13.6648L13.7573 15.0585L12.3635 16.4523V13.6648ZM11.9861 20.911L13.8693 23.7357L11.0446 26.5603L11.9861 20.911ZM18.0143 20.911L18.9558 26.5603L16.1312 23.7357L18.0143 20.911ZM17.637 16.4523L16.2432 15.0585L17.637 13.6648V16.4523ZM19.3948 7.14834V5.93374L21.824 7.14834H19.3948ZM15.0002 2.14265L17.283 4.50153L15.0002 6.78429L12.7174 4.50153L15.0002 2.14265ZM8.17645 7.14834L10.6057 5.93368V7.14828H8.17645V7.14834ZM7.25928 14.1796L10.6057 12.8411V14.1796H7.25928ZM11.8486 28.2422L15.0002 25.0906L18.1518 28.2422H11.8486ZM19.3948 14.1796V12.8411L22.7412 14.1796H19.3948Z"/>
</g>
<defs>
<clipPath id="clip0">
<rect width="30" height="30" fill="white"/>
</clipPath>
</defs>
</svg>
