<svg width="30" height="30" viewBox="0 0 30 30" fill="currentColor" xmlns="http://www.w3.org/2000/svg">
<path d="M25.8251 6.94541L19.4804 0.600762C19.0931 0.21334 18.5781 0 18.0302 0H5.625C4.4942 0 3.57422 0.91998 3.57422 2.05078V27.9492C3.57422 29.08 4.4942 30 5.625 30H24.375C25.5058 30 26.4258 29.08 26.4258 27.9492V8.39555C26.4258 7.84787 26.2125 7.33289 25.8251 6.94541ZM23.425 7.03125H19.6875C19.526 7.03125 19.3945 6.89982 19.3945 6.73828V3.00082L23.425 7.03125ZM24.375 28.2422H5.625C5.46346 28.2422 5.33203 28.1108 5.33203 27.9492V2.05078C5.33203 1.88924 5.46346 1.75781 5.625 1.75781H17.6367V6.73828C17.6367 7.86908 18.5567 8.78906 19.6875 8.78906H24.668V27.9492C24.668 28.1108 24.5365 28.2422 24.375 28.2422Z" />
<path d="M15.9434 14.668H21.5432C22.0286 14.668 22.4221 14.2745 22.4221 13.7891C22.4221 13.3037 22.0286 12.9102 21.5432 12.9102H15.9434C15.458 12.9102 15.0645 13.3037 15.0645 13.7891C15.0645 14.2745 15.4579 14.668 15.9434 14.668Z" />
<path d="M15.9434 21.7773H21.5432C22.0286 21.7773 22.4221 21.3838 22.4221 20.8984C22.4221 20.413 22.0286 20.0195 21.5432 20.0195H15.9434C15.458 20.0195 15.0645 20.413 15.0645 20.8984C15.0645 21.3838 15.4579 21.7773 15.9434 21.7773Z" />
<path d="M11.5579 11.3961L9.53106 13.4229L9.05312 12.945C8.70993 12.6017 8.15341 12.6017 7.81017 12.945C7.46692 13.2882 7.46692 13.8447 7.81017 14.1879L8.90962 15.2874C9.08124 15.459 9.30618 15.5448 9.53106 15.5448C9.75595 15.5448 9.98095 15.4591 10.1525 15.2874L12.8008 12.6391C13.1441 12.2958 13.1441 11.7393 12.8008 11.3961C12.4576 11.0529 11.9011 11.0529 11.5579 11.3961Z" />
<path d="M11.5579 18.9528L9.53106 20.9796L9.05312 20.5017C8.70993 20.1585 8.15341 20.1584 7.81017 20.5017C7.46692 20.8449 7.46692 21.4014 7.81017 21.7446L8.90962 22.844C9.08124 23.0156 9.30618 23.1014 9.53106 23.1014C9.75595 23.1014 9.98095 23.0156 10.1525 22.8439L12.8008 20.1956C13.1441 19.8524 13.1441 19.2959 12.8008 18.9527C12.4576 18.6095 11.9011 18.6095 11.5579 18.9528Z" />
</svg>
